@startuml profile-management 

[*] --> PROFILE_MANAGEMENT

state EDIT_PROFILE {
    state EPS1 as " "
    state EPS2 as " "
    state EPC1 <<choice>>

    [*] --> EPS1

    EPS1 --> EPS2
    note on link
        <b> System allows edit to: </b>
        * Full name        
        * Profile picture
        * Gender
        * Username
        * Date of birth
    end note
    
    EPS2 --> EPC1
    note on link 
        <b> User provides requested </b>        
    end note

    EPC1 -[#red]--> EPS1
    note on link
        <b> System allows duplicate: </b>
        * Username                
    end note

    EPC1 --> [*]
    note on link
        <b> System allows: </b>
        * Edit profile
    end note
}

state CHANGE_EMAIL {
    state SS2 as " "
    state SS3 as " "
    state SS4 as " "
    state SS5 as " "
    
    state SSC2 <<choice>>
    state SSC3 <<choice>>

    [*] --> SS2
        
    SS2 --> SS3
    note on link
        <b> System requires: </b>
        * Password            
    end note
    
    SS3 --> SS4
    note on link
        <b> User provides: </b>
        * Password            
    end note

    SS4 --> SSC2
    SSC2 -[#red]--> SS2
    note on link
        Password incorrect
    end note

    SSC2 --> SS5
    note on link
        <b> System requires: </b>
        * Code verification
    end note

    SS5 --> SSC3
    note on link
        <b> User provides: </b>
        * Code verification
    end note
    SSC3 -[#red]--> SS5
    note on link
        Code incorrect
    end note

    SSC3 --> [*]
    note on link
        <b> System allows: </b>
        * Change email
    end note
}


state CHANGE_PASSWORD {
    state CPS1 as " "
    state CPS2 as " "
    state CPS3 as " "
    state CPS4 as " "    
    state CPSC1 <<choice>>
    state CPSC2 <<choice>>

    [*] --> CPS1
    CPS1 --> CPS2
    note on link
        <b> System requires: </b>
        * Current password            
    end note

    CPS2 --> CPS3
    note on link
        <b> User provides: </b>
        * Current password            
    end note

    CPS3 --> CPSC1
    CPSC1 -[#red]--> CPS1
    note on link
        Password incorrect
    end note

    CPSC1 --> CPS4
    note on link
        <b> System allows: </b>
        * New password
        * Confirm new password
    end note

    CPS4 --> CPSC2 
    CPSC2 -[#red]--> CPS4
    note on link
        Passwords do not match
    end note

    CPSC2 --> [*] 
    note on link
        <b> System allows: </b>
        * Change password
    end note   
}

PROFILE_MANAGEMENT --> EDIT_PROFILE
PROFILE_MANAGEMENT --> SECURITY 
SECURITY --> CHANGE_EMAIL
SECURITY --> CHANGE_PASSWORD

state union <<choice>>

EDIT_PROFILE --> union
CHANGE_EMAIL --> union
CHANGE_PASSWORD --> union
union --> [*]
union --> PROFILE_MANAGEMENT
@enduml