@startuml use-cases-context
[*] --> INITIAL
note on link
  Authenticaction
end note

INITIAL --> VIEW_HOME
INITIAL --> VIEW_CATALOG
INITIAL --> VIEW_LIBRARY
INITIAL --> VIEW_NOTIFICATIONS
INITIAL --> PROFILE_MANAGEMENT 
note on link
  Edit profile and 
  security  
end note
INITIAL --> SEARCH_CONTENT
SEARCH_CONTENT --> VIEW_CONTENT
note on link
  Input search or
  select from recent
end note

PROFILE_MANAGEMENT --> [*]
note on link
  Logout
end note


VIEW_CATALOG --> SEARCH_FILTER_CONTENT

VIEW_LIBRARY --> VIEW_WATCH_LATER
VIEW_LIBRARY --> VIEW_FAVORITES
VIEW_LIBRARY --> VIEW_HISTORY

VIEW_HOME --> VIEW_CONTENT
note on link
  New releases
  Movies
  Series
end note

VIEW_NOTIFICATIONS --> VIEW_COMMENTS
note on link
  View replies or
  like/dislike of commentary 
end note

VIEW_COMMENTS --> [*]
note on link
  Logout
end note

SEARCH_FILTER_CONTENT --> VIEW_CONTENT
note on link
  By content (movie or serie)
  year, genre, rating.
end note

VIEW_WATCH_LATER --> VIEW_CONTENT
VIEW_FAVORITES --> VIEW_CONTENT
VIEW_HISTORY --> VIEW_CONTENT

VIEW_CONTENT --> [*]
note on link
  Logout
end note
@enduml


@startuml use-cases-context-v2

[*] --> AUTHENTICATION

AUTHENTICATION --> OPENED_FLIXXIC: Login
OPENED_FLIXXIC -right-> CONTENT_INTERACTION
OPENED_FLIXXIC -left-> PROFILE_MANAGEMENT

CONTENT_INTERACTION --> CONTENT_INTERACTION
note on link
  * View content
  * Comments
  * Reviews
  * Search and filter
  * Watch later
  * Favorites
  * History
end note


AUTHENTICATION --> AUTHENTICATION
note on link
  * Login
  * Register
end note

PROFILE_MANAGEMENT --> PROFILE_MANAGEMENT
note on link
  * Edit profile
  * Security  
end note

state logout <<choice>>


CONTENT_INTERACTION --> logout
PROFILE_MANAGEMENT --> logout

OPENED_FLIXXIC --> logout
logout --> [*]: Logout
logout -left-> OPENED_FLIXXIC: Login
@enduml